<svg xmlns="http://www.w3.org/2000/svg" viewBox="0 0 792 346" enable-background="new 0 0 792 346"><path stroke="#fff" stroke-width="2" stroke-miterlimit="10" d="M10.1 11h162.1" fill="none"/><path stroke="#fff" stroke-width="2" stroke-miterlimit="10" d="M91.2 11v324.2" fill="none"/><path fill="#fff" d="M10.1 21.2l-10.1-10.1 10.1-10.1 10.1 10.1-10.1 10.1z"/><path fill="#fff" d="M172.2 21.2l-10.1-10.1 10.1-10.1 10.1 10.1-10.1 10.1z"/><path fill="#fff" d="M91.2 345.1l-10.1-10.1 10.1-10 10.1 10.1-10.1 10z"/><path stroke="#fff" stroke-width="2" stroke-miterlimit="10" d="M212.7 10.1v324.2" fill="none"/><path stroke="#fff" stroke-width="2" stroke-miterlimit="10" d="M374.8 10.1h-162.1" fill="none"/><path stroke="#fff" stroke-width="2" stroke-miterlimit="10" d="M212.7 172.3l162.1-162.1" fill="none"/><path stroke="#fff" stroke-width="2" stroke-miterlimit="10" d="M374.8 334.4l-162.1-162.1" fill="none"/><path fill="#fff" d="M374.9 344.4l-10.1-10.1 10.1-10.1 10.1 10.1-10.1 10.1z"/><path fill="#fff" d="M212.1 344.2l-10.1-10 10.1-10.1 10.1 10.1-10.1 10z"/><path fill="#fff" d="M212.1 182.1l-10.1-10 10.1-10.1 10.1 10.1-10.1 10z"/><path fill="#fff" d="M374.9 20.2l-10.1-10.1 10.1-10.1 10.1 10.1-10.1 10.1z"/><path fill="#fff" d="M212.8 20.2l-10.1-10.1 10.1-10.1 10.1 10.1-10.1 10.1z"/><path stroke="#fff" stroke-width="2" stroke-miterlimit="10" d="M577.8 10.1l-81 324.2" fill="none"/><path stroke="#fff" stroke-width="2" stroke-miterlimit="10" d="M496.9 334.4l-81.2-324.2" fill="none"/><path fill="#fff" d="M496.9 324.5l10.1 10.1-10.1 10.1-10.1-10.1 10.1-10.1z"/><path fill="#fff" d="M578 0l10.1 10.1-10.1 10.1-10.1-10.1 10.1-10.1z"/><path fill="#fff" d="M415.8 0l10.1 10.1-10.1 10.1-10.1-10.1 10.1-10.1z"/><path stroke="#fff" stroke-width="2" stroke-miterlimit="10" d="M618.5 11v324.2" fill="none"/><path stroke="#fff" stroke-width="2" stroke-miterlimit="10" d="M618.5 335.2h161.9" fill="none"/><path stroke="#fff" stroke-width="2" stroke-miterlimit="10" d="M618.5 173.1h161.9" fill="none"/><path stroke="#fff" stroke-width="2" stroke-miterlimit="10" d="M618.5 11h161.9" fill="none"/><path fill="#fff" d="M618.5 20.5l-10.1-10.1 10.1-10.1 10.1 10.1-10.1 10.1z"/><path fill="#fff" d="M618.6 345.3l-10.1-10.1 10.1-10.1 10.1 10.1-10.1 10.1z"/><path fill="#fff" d="M618.4 182.6l-10.1-10.1 10.1-10.1 10.1 10.1-10.1 10.1z"/><path fill="#fff" d="M780.6 182.6l-10.1-10.1 10.1-10.1 10.1 10.1-10.1 10.1z"/><path fill="#fff" d="M780.6 20.5l-10.1-10.1 10.1-10.1 10.1 10.1-10.1 10.1z"/><path fill="#fff" d="M780.7 345.3l-10.1-10.1 10.1-10.1 10.1 10.1-10.1 10.1z"/></svg>