<?xml version="1.0" encoding="utf-8"?>
<!-- Generator: Adobe Illustrator 18.0.0, SVG Export Plug-In . SVG Version: 6.00 Build 0)  -->
<!DOCTYPE svg PUBLIC "-//W3C//DTD SVG 1.1//EN" "http://www.w3.org/Graphics/SVG/1.1/DTD/svg11.dtd">
<svg version="1.1" id="Layer_1" xmlns="http://www.w3.org/2000/svg" xmlns:xlink="http://www.w3.org/1999/xlink" x="0px" y="0px"
	 viewBox="0 0 792 346" enable-background="new 0 0 792 346" xml:space="preserve">
<path fill="none" stroke="#FFFFFF" stroke-width="2" stroke-miterlimit="10" d="M10.1,11h162.1"/>
<path fill="none" stroke="#FFFFFF" stroke-width="2" stroke-miterlimit="10" d="M91.2,11v324.2"/>
<path fill="#FFFFFF" d="M10.1,21.2L0,11.1L10.1,1l10.1,10.1L10.1,21.2z"/>
<path fill="#FFFFFF" d="M172.2,21.2l-10.1-10.1L172.2,1l10.1,10.1L172.2,21.2z"/>
<path fill="#FFFFFF" d="M91.2,345.1L81.1,335l10.1-10l10.1,10.1L91.2,345.1z"/>
<path fill="none" stroke="#FFFFFF" stroke-width="2" stroke-miterlimit="10" d="M212.7,10.1v324.2"/>
<path fill="none" stroke="#FFFFFF" stroke-width="2" stroke-miterlimit="10" d="M374.8,10.1H212.7"/>
<path fill="none" stroke="#FFFFFF" stroke-width="2" stroke-miterlimit="10" d="M212.7,172.3L374.8,10.2"/>
<path fill="none" stroke="#FFFFFF" stroke-width="2" stroke-miterlimit="10" d="M374.8,334.4L212.7,172.3"/>
<path fill="#FFFFFF" d="M374.9,344.4l-10.1-10.1l10.1-10.1l10.1,10.1L374.9,344.4z"/>
<path fill="#FFFFFF" d="M212.1,344.2l-10.1-10l10.1-10.1l10.1,10.1L212.1,344.2z"/>
<path fill="#FFFFFF" d="M212.1,182.1l-10.1-10l10.1-10.1l10.1,10.1L212.1,182.1z"/>
<path fill="#FFFFFF" d="M374.9,20.2l-10.1-10.1L374.9,0L385,10.1L374.9,20.2z"/>
<path fill="#FFFFFF" d="M212.8,20.2l-10.1-10.1L212.8,0l10.1,10.1L212.8,20.2z"/>
<path fill="none" stroke="#FFFFFF" stroke-width="2" stroke-miterlimit="10" d="M577.8,10.1l-81,324.2"/>
<path fill="none" stroke="#FFFFFF" stroke-width="2" stroke-miterlimit="10" d="M496.9,334.4L415.7,10.2"/>
<path fill="#FFFFFF" d="M496.9,324.5l10.1,10.1l-10.1,10.1l-10.1-10.1L496.9,324.5z"/>
<path fill="#FFFFFF" d="M578,0l10.1,10.1L578,20.2l-10.1-10.1L578,0z"/>
<path fill="#FFFFFF" d="M415.8,0l10.1,10.1l-10.1,10.1l-10.1-10.1L415.8,0z"/>
<path fill="none" stroke="#FFFFFF" stroke-width="2" stroke-miterlimit="10" d="M618.5,11v324.2"/>
<path fill="none" stroke="#FFFFFF" stroke-width="2" stroke-miterlimit="10" d="M618.5,335.2h161.9"/>
<path fill="none" stroke="#FFFFFF" stroke-width="2" stroke-miterlimit="10" d="M618.5,173.1h161.9"/>
<path fill="none" stroke="#FFFFFF" stroke-width="2" stroke-miterlimit="10" d="M618.5,11h161.9"/>
<path fill="#FFFFFF" d="M618.5,20.5l-10.1-10.1l10.1-10.1l10.1,10.1L618.5,20.5z"/>
<path fill="#FFFFFF" d="M618.6,345.3l-10.1-10.1l10.1-10.1l10.1,10.1L618.6,345.3z"/>
<path fill="#FFFFFF" d="M618.4,182.6l-10.1-10.1l10.1-10.1l10.1,10.1L618.4,182.6z"/>
<path fill="#FFFFFF" d="M780.6,182.6l-10.1-10.1l10.1-10.1l10.1,10.1L780.6,182.6z"/>
<path fill="#FFFFFF" d="M780.6,20.5l-10.1-10.1l10.1-10.1l10.1,10.1L780.6,20.5z"/>
<path fill="#FFFFFF" d="M780.7,345.3l-10.1-10.1l10.1-10.1l10.1,10.1L780.7,345.3z"/>
</svg>
