<?xml version="1.0" encoding="utf-8"?>
<!-- Generator: Adobe Illustrator 18.1.1, SVG Export Plug-In . SVG Version: 6.00 Build 0)  -->
<!DOCTYPE svg PUBLIC "-//W3C//DTD SVG 1.1//EN" "http://www.w3.org/Graphics/SVG/1.1/DTD/svg11.dtd">
<svg version="1.1" id="Layer_1" xmlns="http://www.w3.org/2000/svg" xmlns:xlink="http://www.w3.org/1999/xlink" x="0px" y="0px"
	 viewBox="0 595.3 800 142" enable-background="new 0 595.3 800 142" xml:space="preserve">
<g>
	<path fill="#FFFFFF" d="M84.9,690.3h3.7c-1.7,3.6-4,6.2-6.8,8c-2.8,1.8-6.2,2.7-10,2.7c-5.1,0-8.9-1.4-11.4-4.3
		c-2.5-2.9-3.7-6.2-3.7-10c0-2.1,0.6-5.8,1.7-11.2c1.2-5.5,1.8-9.8,1.8-12.9c0-4.1-1-7.3-3-9.4c-2-2.2-4.6-3.3-7.8-3.3
		c-3.2,0-5.7,1.1-7.6,3.4c-1.9,2.3-4,7.2-6.2,14.8l-3.8,12.5c-1.5,4.9-2.2,7.9-2.2,9.1c0,4.8,4,7.2,11.9,7.2l-1.1,3.5H0l1.1-3.5
		c3.1,0,5.9-0.5,8.1-1.6c2.3-1.1,3.9-2.4,4.8-4c0.9-1.6,2.2-5.1,3.9-10.5l19.7-65c1.6-5.1,2.4-8.3,2.4-9.6c0-3.6-3.3-5.4-9.8-5.4
		h-2.9l1.1-3.5h40.2l-1.1,3.5c-3,0-5.5,0.4-7.4,1.1c-1.9,0.7-3.4,1.9-4.6,3.6c-1.1,1.7-2.7,5.8-4.8,12.4l-8.8,29.2
		c15.6-17.7,28.4-30.7,38.4-39.1c10-8.3,18.4-12.5,25-12.5c2.7,0,4.9,0.7,6.7,2.2c1.8,1.5,2.7,3.4,2.7,5.7c0,1.8-0.6,3.2-1.7,4.3
		c-1.2,1.1-2.5,1.6-4.1,1.6c-2.5,0-4.1-1.4-4.8-4.1c-0.7-2.8-2.2-4.2-4.6-4.2c-1.6,0-3.4,0.4-5.4,1.3c-2,0.8-6.3,4-13,9.5
		c-6.7,5.5-14.2,12.7-22.5,21.5c-8.3,8.8-12.7,13.7-13.3,14.7c2.6-0.9,4.9-1.3,7-1.3c6,0,10.9,2.4,14.5,7.1
		c3.7,4.7,5.5,11.1,5.5,19.2c0,2.2-0.3,5.7-0.8,10.4c-0.2,1.7-0.3,3.1-0.3,4.2c0,4.8,2,7.2,6.1,7.2c1.5,0,2.9-0.4,4.2-1.1
		C82.7,692.7,83.9,691.7,84.9,690.3z"/>
	<path fill="#FFFFFF" d="M130.7,680.9h3.7c-6.4,14.4-14.7,21.5-24.8,21.5c-4.2,0-7.5-1.5-10.2-4.4c-2.6-2.9-3.9-6.9-3.9-11.8
		c0-6.3,1.7-13.4,5.1-21.3c3.4-7.9,8.2-14.7,14.4-20.5c6.2-5.7,11.6-8.6,16.2-8.6c2.8,0,5,0.9,6.5,2.7c1.5,1.8,2.2,4,2.2,6.7
		c0,5.5-2.7,10.7-8.2,15.8c-5.5,5-13.7,9.9-24.6,14.6c-1.4,4.4-2.1,8.6-2.1,12.6c0,3.2,0.6,5.7,1.9,7.3c1.3,1.6,3.1,2.4,5.6,2.4
		C119.3,697.9,125.4,692.2,130.7,680.9z M108.1,671.7c6.5-2.9,12.4-7,17.6-12.2c5.2-5.2,7.8-9.9,7.8-14.1c0-1.9-0.4-3.4-1.2-4.3
		c-0.8-0.9-2-1.4-3.5-1.4c-3,0-6.6,3-10.8,8.9C114,654.6,110.6,662.3,108.1,671.7z"/>
	<path fill="#FFFFFF" d="M177.8,680.9h3.7c-6.4,14.4-14.7,21.5-24.8,21.5c-4.2,0-7.5-1.5-10.2-4.4c-2.6-2.9-3.9-6.9-3.9-11.8
		c0-6.3,1.7-13.4,5.1-21.3c3.4-7.9,8.2-14.7,14.4-20.5c6.2-5.7,11.6-8.6,16.2-8.6c2.8,0,5,0.9,6.5,2.7c1.5,1.8,2.2,4,2.2,6.7
		c0,5.5-2.7,10.7-8.2,15.8c-5.5,5-13.7,9.9-24.6,14.6c-1.4,4.4-2.1,8.6-2.1,12.6c0,3.2,0.6,5.7,1.9,7.3c1.3,1.6,3.1,2.4,5.6,2.4
		C166.4,697.9,172.5,692.2,177.8,680.9z M155.2,671.7c6.5-2.9,12.4-7,17.6-12.2c5.2-5.2,7.8-9.9,7.8-14.1c0-1.9-0.4-3.4-1.2-4.3
		c-0.8-0.9-2-1.4-3.5-1.4c-3,0-6.6,3-10.8,8.9C161.1,654.6,157.7,662.3,155.2,671.7z"/>
	<path fill="#FFFFFF" d="M195,668.9h-3.5l14.4-23.1c4.2-6.7,7-11.4,8.3-14.2c1.3-2.8,2.8-7,4.6-12.6l1.1-3.7h9.1l-5.2,17l-6.4,18
		c6.9-9.7,13.4-14.5,19.6-14.5c3.8,0,6.9,1.7,9.6,5.2c2.6,3.5,4,7.8,4,13c0,6.1-1.6,13.2-4.7,21.1c-3.1,7.9-7.6,14.4-13.4,19.6
		c-5.8,5.1-11.5,7.7-17.2,7.7c-5.5,0-9-2.6-10.4-7.8l-8.9,29.4c-1.1,3.7-1.7,5.9-1.7,6.7c0,0.9,0.4,1.6,1.1,2.2
		c0.7,0.6,2.9,0.9,6.4,0.9h3.4l-1.1,3.3h-31.8l1.1-3.3h1.7c4.5,0,7.1-0.3,8-0.9c0.9-0.6,2.2-3.8,4-9.5l15.8-52.3
		c3.3-10.9,7.2-22,11.6-33.4c-0.5,0.7-1.9,3-4,6.8c-0.3,0.4-1.1,1.7-2.4,3.9L195,668.9z M209.1,680.6c-1.4,4.5-2.1,7.8-2.1,9.7
		c0,2.5,0.7,4.6,2.1,6.3c1.4,1.7,3.3,2.6,5.8,2.6c3.7,0,7.5-2.1,11.4-6.4c3.9-4.2,7.4-11.3,10.7-21.1c3.2-9.9,4.8-17.3,4.8-22.3
		c0-3.2-0.5-5.7-1.5-7.3c-1-1.6-2.5-2.4-4.6-2.4c-2.7,0-6.4,2-10.9,6c-4.5,4-8.7,12.3-12.6,24.9L209.1,680.6z"/>
	<path fill="#FFFFFF" d="M356.3,684.4l59.6-87.3h25.8l-1.1,3.5c-5.2,0-8.6,0.4-10.3,1.3c-1.7,0.9-2.9,2.1-3.7,3.7
		c-0.8,1.6-1.8,5.2-3,10.7l-15.9,64.2c-1.2,4.6-1.7,7.5-1.7,8.7c0,2.6,1.1,4.6,3.3,5.8c2.2,1.2,4.8,1.8,7.7,1.8h2.4l-1.1,3.5H375
		l1.1-3.5h1.8c3.2,0,5.9-0.5,8.1-1.6c2.2-1.1,3.7-2.4,4.6-4c0.8-1.6,1.9-5.1,3.3-10.5l18-72l-63,91.7h-3.7l-10.2-84l-20.5,53.6
		c-3.6,9.3-5.3,15.1-5.3,17.3c0,3.6,1,6,3,7.4c2,1.4,5.4,2.1,10,2.2l-1.1,3.5h-34.7l1.1-3.5c3.8-0.1,7-1,9.7-2.7
		c2.7-1.7,4.9-4.2,6.5-7.4s4.2-9.1,7.5-17.7l19.6-50.6c2.2-5.9,3.3-9.7,3.3-11.3c0-2.1-0.6-3.7-1.8-4.8c-1.2-1.1-3.8-1.6-7.7-1.6
		h-4.4l1-3.5h24L356.3,684.4z"/>
	<path fill="#FFFFFF" d="M467.9,680.9h3.7c-6.4,14.4-14.7,21.5-24.8,21.5c-4.2,0-7.5-1.5-10.2-4.4c-2.6-2.9-3.9-6.9-3.9-11.8
		c0-6.3,1.7-13.4,5.1-21.3c3.4-7.9,8.2-14.7,14.4-20.5c6.2-5.7,11.6-8.6,16.2-8.6c2.8,0,5,0.9,6.5,2.7c1.5,1.8,2.2,4,2.2,6.7
		c0,5.5-2.7,10.7-8.2,15.8c-5.5,5-13.7,9.9-24.6,14.6c-1.4,4.4-2.1,8.6-2.1,12.6c0,3.2,0.6,5.7,1.9,7.3c1.3,1.6,3.1,2.4,5.6,2.4
		C456.5,697.9,462.6,692.2,467.9,680.9z M445.3,671.7c6.5-2.9,12.4-7,17.6-12.2c5.2-5.2,7.8-9.9,7.8-14.1c0-1.9-0.4-3.4-1.2-4.3
		c-0.8-0.9-2-1.4-3.5-1.4c-3,0-6.6,3-10.8,8.9C451.1,654.6,447.8,662.3,445.3,671.7z"/>
	<path fill="#FFFFFF" d="M600.5,668.1h3.4l-10.3,33.5h-3.2c0-3.2-0.3-6.6-0.8-10.3c-7.4,7.2-15.9,10.8-25.5,10.8
		c-11.1,0-19.8-4-26.3-12c-6.5-8-9.7-17.1-9.7-27.3c0-16.3,5.9-31.6,17.6-46c11.7-14.4,25-21.6,39.8-21.6c6.2,0,11.4,1.3,15.6,4
		c4.2,2.7,7.5,6.7,9.8,12.1c2.3-3.9,4-7.8,5.2-11.9h3.3l-6.8,30h-3.2c0.2-1.4,0.2-2.7,0.2-3.9c0-8.7-2.1-15.4-6.2-20.2
		s-9.5-7.1-16.3-7.1c-7.4,0-14.3,2.7-20.7,8.1c-6.4,5.4-12.1,14.6-17,27.6c-4.9,13-7.4,24.5-7.4,34.5c0,8.8,2.1,16,6.3,21.6
		c4.2,5.6,9.9,8.4,17.2,8.4C579.7,698.7,591.4,688.5,600.5,668.1z"/>
	<path fill="#FFFFFF" d="M642.3,682h3.3c-5.2,13.6-11.8,20.4-19.9,20.4c-2.8,0-5-0.9-6.7-2.8s-2.5-4.2-2.5-7c0-2.7,1.6-9.5,4.9-20.3
		l17.8-58.7c1.5-5,2.3-7.9,2.3-8.7c0-1.2-0.3-2.1-1-2.6c-0.7-0.5-2.4-0.8-5.1-0.8h-3l1-3.2c8.4-0.2,14.5-1.1,18.5-2.7h1.9
		l-24.5,80.6c-0.4,1.3-1.1,3.6-2.2,6.9c-1.5,4.4-2.2,7.8-2.2,10c0,1.5,0.3,2.7,0.9,3.4c0.6,0.8,1.5,1.1,2.6,1.1
		c1.7,0,3.9-1.2,6.5-3.6C637.4,691.9,639.9,687.8,642.3,682z"/>
	<path fill="#FFFFFF" d="M651.8,680.3c0-6.1,1.4-12.7,4.3-19.9c2.8-7.2,6.9-13,12.2-17.5c5.3-4.5,10.4-6.7,15.4-6.7
		c4.5,0,8.2,1.9,11.1,5.7c2.9,3.8,4.4,9,4.4,15.6c0,7.9-1.6,15.4-4.9,22.5c-3.2,7.1-7.3,12.5-12.2,16.3c-4.9,3.8-9.7,5.7-14.4,5.7
		c-4.2,0-7.9-1.6-11.1-4.9C653.4,693.9,651.8,688.3,651.8,680.3z M659.9,689c0,2.7,0.7,5.1,2.1,7c1.4,1.9,3.4,2.9,5.9,2.9
		c6.8,0,12.4-6.4,16.8-19.3c4.4-12.9,6.6-22.7,6.6-29.5c0-3.5-0.7-6.1-2-7.9c-1.3-1.7-3.4-2.6-6-2.6c-6.3,0-11.8,6-16.4,17.9
		C662.2,669.4,659.9,679.9,659.9,689z"/>
	<path fill="#FFFFFF" d="M741.7,683.5c0,4.7-1.8,9-5.4,13c-3.6,3.9-9,5.9-16,5.9c-5.2,0-9.1-1.2-11.8-3.5c-2.6-2.3-3.9-4.8-3.9-7.4
		c0-1.4,0.4-2.6,1.2-3.7c0.8-1,1.8-1.5,3-1.5c2.7,0,4.1,1.4,4.1,4.3c0,0.7-0.2,1.6-0.5,2.8c-0.2,0.6-0.3,1-0.3,1.3
		c0,1.2,0.8,2.3,2.4,3.2c1.6,0.9,3.4,1.3,5.6,1.3c3.4,0,6.5-1.1,9.3-3.2c2.8-2.2,4.2-5.1,4.2-8.9c0-3.3-2-8.5-5.9-15.6
		c-4.6-8.2-6.8-14.2-6.8-18c0-4.9,1.9-9,5.8-12.3c3.9-3.3,8.2-5,13.2-5c3.6,0,6.7,0.9,9.2,2.7c2.6,1.8,3.8,3.8,3.8,5.9
		c0,2.7-1.1,4-3.3,4c-1.7,0-2.9-1.5-3.7-4.5c-0.8-3.3-3-4.9-6.6-4.9c-2.9,0-5.4,0.8-7.5,2.4c-2.1,1.6-3.2,3.6-3.2,6.2
		c0,3.4,1.7,8.2,5.1,14.2c3.2,5.5,5.3,9.7,6.4,12.6C741.2,677.5,741.7,680.5,741.7,683.5z"/>
	<path fill="#FFFFFF" d="M790.9,680.9h3.7c-6.4,14.4-14.7,21.5-24.8,21.5c-4.2,0-7.5-1.5-10.2-4.4c-2.6-2.9-3.9-6.9-3.9-11.8
		c0-6.3,1.7-13.4,5.1-21.3c3.4-7.9,8.2-14.7,14.4-20.5c6.2-5.7,11.6-8.6,16.2-8.6c2.8,0,5,0.9,6.5,2.7c1.5,1.8,2.2,4,2.2,6.7
		c0,5.5-2.7,10.7-8.2,15.8c-5.5,5-13.7,9.9-24.6,14.6c-1.4,4.4-2.1,8.6-2.1,12.6c0,3.2,0.6,5.7,1.9,7.3c1.3,1.6,3.1,2.4,5.6,2.4
		C779.5,697.9,785.6,692.2,790.9,680.9z M768.3,671.7c6.5-2.9,12.4-7,17.6-12.2c5.2-5.2,7.8-9.9,7.8-14.1c0-1.9-0.4-3.4-1.2-4.3
		c-0.8-0.9-2-1.4-3.5-1.4c-3,0-6.6,3-10.8,8.9C774.1,654.6,770.8,662.3,768.3,671.7z"/>
</g>
</svg>
